PathFileType	4	(X/Y/Z)	/Users/niels/Desktop/University/Third Semester/Perception and Action/Exam/Gymnastics Motion Tracking/Code for Gym Tracking/Analyzed Data/Webcam_Backflip/id19_4_trajectory_Sports2D/id19_4_trajectory_Sports2D_px_person00.trc
DataRate	CameraRate	NumFrames	NumMarkers	Units	OrigDataRate	OrigDataStartFrame	OrigNumFrames
29.714285714285715	29.714285714285715	12	22	m	29.714285714285715	78	105
Frame#	Time	Hip			RHip			RKnee			RAnkle			RBigToe			RSmallToe			RHeel			LHip			LKnee			LAnkle			LBigToe			LSmallToe			LHeel			Neck			Head			Nose			RShoulder			RElbow			RWrist			LShoulder			LElbow			LWrist		
		X1	Y1	Z1	X2	Y2	Z2	X3	Y3	Z3	X4	Y4	Z4	X5	Y5	Z5	X6	Y6	Z6	X7	Y7	Z7	X8	Y8	Z8	X9	Y9	Z9	X10	Y10	Z10	X11	Y11	Z11	X12	Y12	Z12	X13	Y13	Z13	X14	Y14	Z14	X15	Y15	Z15	X16	Y16	Z16	X17	Y17	Z17	X18	Y18	Z18	X19	Y19	Z19	X20	Y20	Z20	X21	Y21	Z21	X22	Y22	Z22
78	2.625	0.8179082310471589	-0.6808018650501897	0.0	0.799470446926447	-0.6813415266279818	0.0	0.8248765746588563	-0.8130485983737834	0.0	0.786724612751158	-0.9446626969540443	0.0	0.8344308664946372	-0.9673529916369898	0.0	0.8137188694745687	-0.971795781727752	0.0	0.7701802807118435	-0.9621912223345992	0.0	0.8369676776371081	-0.6820168780659257	0.0	0.8540386719207481	-0.8099155853614936	0.0	0.8238832473519221	-0.9340351778884987	0.0	0.8629033819496013	-0.9596689940469368	0.0	0.8625977530731342	-0.9549927882648588	0.0	0.8121869543012337	-0.9516998929901352	0.0	0.8469810092236201	-0.517645445880006	0.0	0.9088996572301513	-0.45429334038475955	0.0	0.894705660505619	-0.4988769229985065	0.0	0.8117977414692805	-0.5146985610653622	0.0	0.8075855247963343	-0.4569735533408142	0.0	0.8172294763296207	-0.3997940953126619	0.0	0.8729527962433725	-0.5251943179367307	0.0	0.9321656728442504	-0.501087729512244	0.0	0.9723812298995846	-0.4648902506926552	0.0
79	2.658653846153846	0.8200223902428383	-0.6805227934501256	0.0	0.8025959088210088	-0.6810413727448705	0.0	0.8219390297895862	-0.8123610527695297	0.0	0.7866799239476013	-0.9450908558826913	0.0	0.834060514488599	-0.9676776392280098	0.0	0.8146580676323	-0.9721916195601252	0.0	0.7704579947393823	-0.9627557439856369	0.0	0.8387440385719184	-0.6818930130047064	0.0	0.8491076713121651	-0.8105790369751249	0.0	0.8224597323853923	-0.935126465474613	0.0	0.861862288859347	-0.9599441122447473	0.0	0.8609259163058761	-0.955182887461508	0.0	0.8111958915561452	-0.9525589808739597	0.0	0.8449076992695985	-0.5151258355874607	0.0	0.9047826106845107	-0.45055568139311813	0.0	0.8921429262366635	-0.49544849926188456	0.0	0.809708266311796	-0.5134930323649354	0.0	0.7979258117992513	-0.4621495465139965	0.0	0.8122511253290646	-0.4007825468195179	0.0	0.870182950350515	-0.5245373409899784	0.0	0.9258994012561836	-0.5011763963768335	0.0	0.965503656207374	-0.46252982314303354	0.0
80	2.692307692307692	0.8214769530515388	-0.6809869430834734	0.0	0.8049599802003046	-0.6815160442320743	0.0	0.8194610425276778	-0.8119880608758441	0.0	0.786639690455112	-0.9456448415872882	0.0	0.8335114583437345	-0.9677117114855317	0.0	0.8156508460211312	-0.9722456860960605	0.0	0.7708513490286458	-0.9632986055334143	0.0	0.8399258363922939	-0.6825877181719318	0.0	0.8448050725202472	-0.8111742508033388	0.0	0.82083349807018	-0.9358976061611801	0.0	0.860787743028789	-0.9598901189593465	0.0	0.8588403393125815	-0.9550368386110044	0.0	0.8100228478502164	-0.9529739473390855	0.0	0.8432273389261098	-0.5139662387746086	0.0	0.9012464767896438	-0.44862932986123405	0.0	0.8899559048163216	-0.49482009751063144	0.0	0.8082752641301568	-0.5133151977252066	0.0	0.7867786818305947	-0.47381466567572267	0.0	0.8083416499643189	-0.4097742331126706	0.0	0.8674560098247218	-0.5257901769268603	0.0	0.9181928535897693	-0.5062029457264544	0.0	0.9582609965422292	-0.4658108049487508	0.0
81	2.7259615384615383	0.822458394332242	-0.6820322521252626	0.0	0.8066485063631228	-0.6825704426947208	0.0	0.8173057062313006	-0.8121189028446747	0.0	0.7864621232199729	-0.9464938273178441	0.0	0.8329693918878037	-0.9677369279668089	0.0	0.8164796037656467	-0.9722395131487782	0.0	0.7711973548582497	-0.9641085923459164	0.0	0.8406252739670287	-0.6838306362399936	0.0	0.8411387978778166	-0.8119625531495053	0.0	0.8191429020558231	-0.9367542449692545	0.0	0.8596606475768428	-0.9600188645547665	0.0	0.8565788879775068	-0.9550931078279462	0.0	0.8088174682283173	-0.9534639712915579	0.0	0.8418812387769891	-0.5135269114402325	0.0	0.8981745370478904	-0.44759975711306627	0.0	0.8881912956186891	-0.4956844452013782	0.0	0.8072587175398689	-0.513877890315466	0.0	0.7748119365111518	-0.4904718833295667	0.0	0.8055188587811053	-0.42675154718253583	0.0	0.864901825866849	-0.5280094269146165	0.0	0.9091797933090261	-0.5156860115626113	0.0	0.9507842382248317	-0.47463288408298193	0.0
82	2.7596153846153846	0.8231437745226194	-0.6836483395153379	0.0	0.8078301338542887	-0.6842238176123665	0.0	0.8154275054735657	-0.8128601432066238	0.0	0.7861199151757093	-0.9476639961236775	0.0	0.8326095298640689	-0.9680173020076669	0.0	0.8170545681996982	-0.9724505101458675	0.0	0.7713770553643183	-0.9653275203252811	0.0	0.8410405170909053	-0.6855733922294022	0.0	0.8381337861008002	-0.8131580338366652	0.0	0.8176062126459452	-0.937934432705776	0.0	0.8584898417559964	-0.9607051298261969	0.0	0.8544543204642845	-0.9557596324139062	0.0	0.8078102162386357	-0.9543888776467501	0.0	0.8407378129876536	-0.5134696189663187	0.0	0.8952623406849636	-0.44681592745027887	0.0	0.8866427339009313	-0.4967209506440554	0.0	0.8062913545742625	-0.5152432946535307	0.0	0.7632435843660941	-0.5104573261791047	0.0	0.8037533655189372	-0.4514638735969434	0.0	0.8625154766344036	-0.5305597091960206	0.0	0.8991830459249298	-0.5289814164010778	0.0	0.9433356010092809	-0.4890305658646256	0.0
83	2.793269230769231	0.823663272332269	-0.6858172206397695	0.0	0.8086402930352007	-0.6865108646139767	0.0	0.8138702306225885	-0.8141857559228629	0.0	0.785696206858935	-0.9491101885540172	0.0	0.8324204951626292	-0.9687697329386004	0.0	0.8172718988748287	-0.9731209771367386	0.0	0.7713681935173452	-0.9669458848789108	0.0	0.8413666987625662	-0.6878220191890466	0.0	0.8358284932692263	-0.8148126455397432	0.0	0.8163952054431967	-0.9394977737369632	0.0	0.8572833456514112	-0.9620958690826714	0.0	0.8527169723232196	-0.9571982071250398	0.0	0.8071739379641109	-0.9558793800013836	0.0	0.8396685392820814	-0.5137974268594143	0.0	0.8920206793584715	-0.4459632155490977	0.0	0.8850179731935476	-0.49712855711485987	0.0	0.8050788780403043	-0.517663765687203	0.0	0.7535297398030332	-0.5321166242147148	0.0	0.8030540757257868	-0.4830983128356965	0.0	0.8602866320582588	-0.5332410301839089	0.0	0.8887684504452696	-0.5452882658293097	0.0	0.936232838789584	-0.5089848940335648	0.0
84	2.8269230769230766	0.8241055837108601	-0.6884737297109	0.0	0.8091689625178182	-0.6893756643953277	0.0	0.8126990983515782	-0.8159709061997307	0.0	0.7853238491238094	-0.9508120419546845	0.0	0.8322682479438606	-0.9701545200761987	0.0	0.8170687933658353	-0.9744253020169358	0.0	0.7712429858147458	-0.9688723614619147	0.0	0.8417329715908693	-0.6905216674001504	0.0	0.834264536309414	-0.8168342949817854	0.0	0.8155397367544751	-0.9414083701249303	0.0	0.856018313675375	-0.9641213385902303	0.0	0.8514214907577646	-0.959293230910971	0.0	0.8069016527836348	-0.9578701519188344	0.0	0.8385755722827815	-0.5146533591189523	0.0	0.887931043711949	-0.4450364905841853	0.0	0.8831560590800243	-0.49677766942503665	0.0	0.8034940993445037	-0.5213372166983793	0.0	0.7469616566938321	-0.553879411008465	0.0	0.8035045551450504	-0.5198995112108954	0.0	0.8582975350036017	-0.5361273520953491	0.0	0.878683914407643	-0.5635500754748887	0.0	0.9297158300743157	-0.5340654106102928	0.0
85	2.860576923076923	0.8245489039988952	-0.6915933340180596	0.0	0.8095348749851449	-0.6927040848276186	0.0	0.8119080344758642	-0.8181284324759279	0.0	0.7851018137919089	-0.9528350154962378	0.0	0.8320434021833522	-0.9722552884278937	0.0	0.8165401027070496	-0.9764353675491063	0.0	0.771109155156597	-0.9710352894907534	0.0	0.842198662974808	-0.6935864441438854	0.0	0.8334325943132289	-0.8191413609657549	0.0	0.8149370985055163	-0.943639719348221	0.0	0.8546683796377159	-0.9665853834510956	0.0	0.8504390136689124	-0.9617671090834773	0.0	0.806823928819516	-0.9602125668461285	0.0	0.8373870498723888	-0.5161003054022926	0.0	0.8827143429887746	-0.4442526242731675	0.0	0.8810387145103704	-0.4959844259299456	0.0	0.8015637987140423	-0.5262394770735583	0.0	0.7443000637305338	-0.5744043567640594	0.0	0.8049699257511944	-0.5592710295647092	0.0	0.8566643610990005	-0.5393639874018918	0.0	0.8697475170841047	-0.5824269690629038	0.0	0.9238085311692219	-0.5631519337981642	0.0
86	2.894230769230769	0.8250935397409119	-0.695197283784212	0.0	0.8099183667840799	-0.6963624531009712	0.0	0.8114058069984956	-0.8206535086633939	0.0	0.7850404706630738	-0.9552851671633179	0.0	0.8316894655399552	-0.9750194597622812	0.0	0.815866221626322	-0.9790672871740441	0.0	0.7710407190060358	-0.9734294406507124	0.0	0.8427800916970106	-0.6969451144015244	0.0	0.8332179578427994	-0.821740603172558	0.0	0.8144552019927761	-0.9462157498445767	0.0	0.8532802142256717	-0.9692512385717981	0.0	0.8496227633383202	-0.9643486854706876	0.0	0.8067613156203889	-0.962800361822073	0.0	0.8360437189797075	-0.5180367635102738	0.0	0.8765110014104979	-0.44389456936617555	0.0	0.8786845674489414	-0.49520876217368553	0.0	0.7994625370623738	-0.5320633972924419	0.0	0.7455546118565953	-0.5927492654720701	0.0	0.8067522027608355	-0.5984020268272355	0.0	0.8553726708290214	-0.5430098958439376	0.0	0.8626055256192995	-0.6004475733718198	0.0	0.9182013929113934	-0.5944447233136726	0.0
87	2.9278846153846154	0.8258422655542164	-0.6992267883406966	0.0	0.810502008936723	-0.7001934614225936	0.0	0.8110961904751779	-0.8235276248772072	0.0	0.7850822686772856	-0.9581557590647052	0.0	0.8311584028562691	-0.9782311005224095	0.0	0.8151587856037562	-0.982082728738048	0.0	0.7710451076538885	-0.9760523545578489	0.0	0.8434727741496189	-0.7005164793249594	0.0	0.833426698436749	-0.824618885243287	0.0	0.8140166278816412	-0.9491014867255462	0.0	0.8519877198300613	-0.9718967014770087	0.0	0.848956294593427	-0.9668668609928658	0.0	0.8066620444611814	-0.965548136954763	0.0	0.8345300006343934	-0.5202305487022749	0.0	0.8698207515243302	-0.4441104570618637	0.0	0.8761393731312966	-0.49476586623151325	0.0	0.7974811469815613	-0.5382585323248753	0.0	0.7500280956048844	-0.608390261227758	0.0	0.8078904551052232	-0.6347650195888499	0.0	0.8542549107978363	-0.5469536220768563	0.0	0.8574706612119948	-0.6163069439382857	0.0	0.912285177885701	-0.625722111237688	0.0
88	2.9615384615384612	0.8268328084527712	-0.7034428559247983	0.0	0.8113723919158421	-0.7039959913747812	0.0	0.8109353863595131	-0.8266166582039184	0.0	0.7851578649904025	-0.9612209538352507	0.0	0.8304023532305099	-0.9815682147012423	0.0	0.8144247591611522	-0.9851784399476252	0.0	0.7710917042008482	-0.9787923768019956	0.0	0.844243653518495	-0.7041448029505953	0.0	0.8338613621397394	-0.8276119787838603	0.0	0.8136067626160906	-0.9520638276997293	0.0	0.8509864673298057	-0.9743237217886926	0.0	0.8485750677936228	-0.9692192144047908	0.0	0.8066017922692382	-0.968278622115221	0.0	0.832912141817648	-0.5224225519365415	0.0	0.8632859114003751	-0.44482238747788144	0.0	0.8735120400749729	-0.494689571717168	0.0	0.7958753165071117	-0.5441883318411952	0.0	0.7565821403256059	-0.6211146652752009	0.0	0.807899636585511	-0.6662645172703165	0.0	0.8531369143517044	-0.550939138782761	0.0	0.8540954527557417	-0.6291276629660449	0.0	0.9054100071964718	-0.654693536826419	0.0
89	2.9951923076923075	0.8279773404331306	-0.7074991517487365	0.0	0.8124513337070352	-0.70754753427559	0.0	0.8109194938121884	-0.8296635377189912	0.0	0.785218713442255	-0.9641182044785227	0.0	0.8294089306557986	-0.9846930151165766	0.0	0.8136287949710792	-0.9880821915944532	0.0	0.7711734705462909	-0.9814013399499774	0.0	0.8450116042636443	-0.7076035936969757	0.0	0.8343666561017653	-0.8304283031882708	0.0	0.8132608521893894	-0.954716874435589	0.0	0.8505352588057334	-0.9763259139690654	0.0	0.8486834906493941	-0.971276209049139	0.0	0.8066759878168459	-0.9707409746867897	0.0	0.831311210943839	-0.5244166256509886	0.0	0.8574844730036746	-0.4458057276285221	0.0	0.8709459459787018	-0.4948214419910594	0.0	0.7946932528140519	-0.5493490524146554	0.0	0.7639372496115806	-0.6309221504331074	0.0	0.807039909523607	-0.6914301692367127	0.0	0.8519337112484702	-0.5546367766691116	0.0	0.8519277136494101	-0.6385187584051597	0.0	0.8972004101792633	-0.6793860286216936	0.0
